<svg xmlns="http://www.w3.org/2000/svg" width="23.54" height="29" viewBox="0 0 23.54 29">
  <g id="_002-budget" data-name="002-budget" transform="translate(-48.2)">
    <path id="Path_6" data-name="Path 6" d="M336.693,15.569h5.357l-6.782-6.782v5.357A1.427,1.427,0,0,0,336.693,15.569Z" transform="translate(-270.807 -8.289)" fill="#b6b8c0"/>
    <path id="Path_7" data-name="Path 7" d="M65.885,8.979A3.128,3.128,0,0,1,62.76,5.855V0H51.325A3.128,3.128,0,0,0,48.2,3.125V25.875A3.128,3.128,0,0,0,51.325,29H68.615a3.128,3.128,0,0,0,3.125-3.125V8.979Zm-6.825,7.4h1.82a2.67,2.67,0,0,1,0,5.34h-.06v.97a.85.85,0,0,1-1.7,0v-.97H57.24a.85.85,0,0,1,0-1.7h3.64a.971.971,0,0,0,0-1.941H59.06a2.67,2.67,0,1,1,0-5.339h.06V11.77a.85.85,0,0,1,1.7,0v.971H62.7a.85.85,0,0,1,0,1.7H59.06a.97.97,0,1,0,0,1.941Z" fill="#b6b8c0"/>
  </g>
</svg>
