<svg id="_001-dashboard" data-name="001-dashboard" xmlns="http://www.w3.org/2000/svg" width="29" height="29" viewBox="0 0 29 29">
  <path id="Path_2" data-name="Path 2" d="M11.177,0H2.115A2.117,2.117,0,0,0,0,2.115V7.552A2.117,2.117,0,0,0,2.115,9.667h9.062a2.117,2.117,0,0,0,2.115-2.115V2.115A2.117,2.117,0,0,0,11.177,0Zm0,0" fill="#b6b8c0"/>
  <path id="Path_3" data-name="Path 3" d="M11.177,213.332H2.115A2.117,2.117,0,0,0,0,215.447v12.687a2.117,2.117,0,0,0,2.115,2.115h9.062a2.117,2.117,0,0,0,2.115-2.115V215.447A2.117,2.117,0,0,0,11.177,213.332Zm0,0" transform="translate(0 -201.249)" fill="#b6b8c0"/>
  <path id="Path_4" data-name="Path 4" d="M288.509,341.332h-9.062a2.117,2.117,0,0,0-2.115,2.115v5.438A2.117,2.117,0,0,0,279.447,351h9.062a2.117,2.117,0,0,0,2.115-2.115v-5.437A2.117,2.117,0,0,0,288.509,341.332Zm0,0" transform="translate(-261.624 -321.999)" fill="#b6b8c0"/>
  <path id="Path_5" data-name="Path 5" d="M288.509,0h-9.062a2.117,2.117,0,0,0-2.115,2.115V14.8a2.117,2.117,0,0,0,2.115,2.115h9.062a2.117,2.117,0,0,0,2.115-2.115V2.115A2.117,2.117,0,0,0,288.509,0Zm0,0" transform="translate(-261.624)" fill="#b6b8c0"/>
</svg>
