<svg xmlns="http://www.w3.org/2000/svg" style="display: none;">
<symbol id="dashboard" viewBox="0 0 512 512"><title>dashboard</title><path d="m197.332031 0h-160c-20.585937 0-37.332031 16.746094-37.332031 37.332031v96c0 20.589844 16.746094 37.335938 37.332031 37.335938h160c20.589844 0 37.335938-16.746094 37.335938-37.335938v-96c0-20.585937-16.746094-37.332031-37.335938-37.332031zm0 0"/><path d="m197.332031 213.332031h-160c-20.585937 0-37.332031 16.746094-37.332031 37.335938v224c0 20.585937 16.746094 37.332031 37.332031 37.332031h160c20.589844 0 37.335938-16.746094 37.335938-37.332031v-224c0-20.589844-16.746094-37.335938-37.335938-37.335938zm0 0"/><path d="m474.667969 341.332031h-160c-20.589844 0-37.335938 16.746094-37.335938 37.335938v96c0 20.585937 16.746094 37.332031 37.335938 37.332031h160c20.585937 0 37.332031-16.746094 37.332031-37.332031v-96c0-20.589844-16.746094-37.335938-37.332031-37.335938zm0 0"/><path d="m474.667969 0h-160c-20.589844 0-37.335938 16.746094-37.335938 37.332031v224c0 20.589844 16.746094 37.335938 37.335938 37.335938h160c20.585937 0 37.332031-16.746094 37.332031-37.335938v-224c0-20.585937-16.746094-37.332031-37.332031-37.332031zm0 0"/></symbol>
<symbol id="budget" viewBox="0 0 512 512"><title>budget</title><path d="m360.435 128.533h94.578l-119.746-119.746v94.579c0 13.877 11.291 25.167 25.168 25.167z"/><path d="m360.435 158.533c-30.42 0-55.168-24.748-55.168-55.167v-103.366h-201.9c-30.419 0-55.167 24.747-55.167 55.166v401.667c0 30.419 24.748 55.167 55.166 55.167h305.268c30.419 0 55.166-24.748 55.166-55.167v-298.3zm-120.5 130.667 32.133-.004c25.991.006 47.133 21.151 47.133 47.137 0 25.989-21.143 47.134-47.131 47.134h-1.068v17.133c0 8.284-6.717 15-15 15-8.285 0-15-6.716-15-15v-17.133h-33.202c-8.283 0-15-6.716-15-15s6.717-15 15-15h64.27c9.446 0 17.131-7.686 17.131-17.134s-7.686-17.135-17.135-17.137l-32.13.004c-25.991 0-47.136-21.145-47.136-47.134 0-25.987 21.145-47.13 47.135-47.13h1.066v-17.136c0-8.284 6.715-15 15-15 8.283 0 15 6.716 15 15v17.136l33.199-.002c8.284 0 15 6.715 15 14.999.001 8.284-6.715 15.001-14.999 15.001l-64.267.003c-9.448 0-17.135 7.685-17.135 17.13.001 9.447 7.687 17.133 17.136 17.133z"/></symbol>
<symbol id="list-text" viewBox="0 0 512.18 512.18"><title>list-text</title><g> <g> <path d="M448.18,80h-320c-17.673,0-32,14.327-32,32s14.327,32,32,32h320c17.673,0,32-14.327,32-32S465.853,80,448.18,80z"/> </g> </g><g> <g> <path d="M64.18,112c-0.036-8.473-3.431-16.586-9.44-22.56c-12.481-12.407-32.639-12.407-45.12,0 C3.61,95.414,0.215,103.527,0.18,112c-0.239,2.073-0.239,4.167,0,6.24c0.362,2.085,0.952,4.124,1.76,6.08 c0.859,1.895,1.876,3.715,3.04,5.44c1.149,1.794,2.49,3.457,4,4.96c1.456,1.45,3.065,2.738,4.8,3.84 c1.685,1.227,3.512,2.248,5.44,3.04c2.121,1.1,4.382,1.908,6.72,2.4c2.073,0.232,4.167,0.232,6.24,0 c8.45,0.007,16.56-3.329,22.56-9.28c1.51-1.503,2.851-3.166,4-4.96c1.164-1.725,2.181-3.545,3.04-5.44 c1.021-1.932,1.826-3.971,2.4-6.08C64.419,116.167,64.419,114.073,64.18,112z"/> </g> </g><g> <g> <path d="M64.18,256c0.238-2.073,0.238-4.167,0-6.24c-0.553-2.065-1.359-4.053-2.4-5.92c-0.824-1.963-1.843-3.839-3.04-5.6 c-1.109-1.774-2.455-3.389-4-4.8c-12.481-12.407-32.639-12.407-45.12,0C3.61,239.414,0.215,247.527,0.18,256 c0.062,4.217,0.875,8.388,2.4,12.32c0.802,1.893,1.766,3.713,2.88,5.44c1.217,1.739,2.611,3.348,4.16,4.8 c1.414,1.542,3.028,2.888,4.8,4c1.685,1.228,3.511,2.249,5.44,3.04c1.951,0.821,3.992,1.412,6.08,1.76 c2.047,0.459,4.142,0.674,6.24,0.64c2.073,0.239,4.167,0.239,6.24,0c2.036-0.349,4.024-0.94,5.92-1.76 c1.981-0.786,3.861-1.807,5.6-3.04c1.772-1.112,3.386-2.458,4.8-4c1.542-1.414,2.888-3.028,4-4.8c1.23-1.684,2.251-3.51,3.04-5.44 c1.093-2.124,1.9-4.384,2.4-6.72C64.426,260.167,64.426,258.073,64.18,256z"/> </g> </g><g> <g> <path d="M64.18,400c0.237-2.073,0.237-4.167,0-6.24c-0.553-2.116-1.359-4.157-2.4-6.08c-0.859-1.895-1.876-3.715-3.04-5.44 c-1.112-1.772-2.458-3.386-4-4.8c-12.481-12.407-32.639-12.407-45.12,0c-1.542,1.414-2.888,3.028-4,4.8 c-1.164,1.725-2.181,3.545-3.04,5.44c-0.83,1.948-1.421,3.99-1.76,6.08c-0.451,2.049-0.665,4.142-0.64,6.24 c0.036,8.473,3.431,16.586,9.44,22.56c1.414,1.542,3.028,2.888,4.8,4c1.685,1.228,3.511,2.249,5.44,3.04 c1.951,0.821,3.992,1.412,6.08,1.76c2.047,0.459,4.142,0.674,6.24,0.64c2.073,0.239,4.167,0.239,6.24,0 c2.036-0.349,4.024-0.94,5.92-1.76c1.981-0.786,3.861-1.807,5.6-3.04c1.772-1.112,3.386-2.458,4.8-4 c1.542-1.414,2.888-3.028,4-4.8c1.231-1.683,2.252-3.51,3.04-5.44c1.092-2.125,1.899-4.384,2.4-6.72 C64.426,404.167,64.426,402.073,64.18,400z"/> </g> </g><g> <g> <path d="M480.18,224h-352c-17.673,0-32,14.327-32,32s14.327,32,32,32h352c17.673,0,32-14.327,32-32S497.853,224,480.18,224z"/> </g> </g><g> <g> <path d="M336.18,368h-208c-17.673,0-32,14.327-32,32c0,17.673,14.327,32,32,32h208c17.673,0,32-14.327,32-32 C368.18,382.327,353.853,368,336.18,368z"/> </g> </g></symbol><symbol id="loupe" viewBox="0 0 513.28 513.28"><title>loupe</title><path d="M495.04,404.48L410.56,320c15.36-30.72,25.6-66.56,25.6-102.4C436.16,97.28,338.88,0,218.56,0S0.96,97.28,0.96,217.6 s97.28,217.6,217.6,217.6c35.84,0,71.68-10.24,102.4-25.6l84.48,84.48c25.6,25.6,64,25.6,89.6,0 C518.08,468.48,518.08,430.08,495.04,404.48z M218.56,384c-92.16,0-166.4-74.24-166.4-166.4S126.4,51.2,218.56,51.2 s166.4,74.24,166.4,166.4S310.72,384,218.56,384z"/></symbol></svg>