<svg xmlns="http://www.w3.org/2000/svg" width="29" height="19.941" viewBox="0 0 29 19.941">
  <defs>
    <style>
      .cls-1 {
        fill: #b6b8c0;
      }
    </style>
  </defs>
  <g id="_003-list-text" data-name="003-list-text" transform="translate(-0.001 -80)">
    <g id="Group_22" data-name="Group 22" transform="translate(5.447 80)">
      <g id="Group_21" data-name="Group 21">
        <path id="Path_8" data-name="Path 8" class="cls-1" d="M116.111,80H97.992a1.812,1.812,0,0,0,0,3.624h18.119a1.812,1.812,0,0,0,0-3.624Z" transform="translate(-96.18 -80)"/>
      </g>
    </g>
    <g id="Group_24" data-name="Group 24" transform="translate(0.001 80.008)">
      <g id="Group_23" data-name="Group 23" transform="translate(0 0)">
        <path id="Path_9" data-name="Path 9" class="cls-1" d="M3.635,81.939a1.812,1.812,0,0,0-3.624,0,1.542,1.542,0,0,0,0,.353,1.634,1.634,0,0,0,.1.344,2.1,2.1,0,0,0,.172.308,1.658,1.658,0,0,0,.226.281,1.6,1.6,0,0,0,.272.217,1.476,1.476,0,0,0,.308.172,1.5,1.5,0,0,0,.38.136,1.589,1.589,0,0,0,.353,0A1.812,1.812,0,0,0,3.1,83.225a1.658,1.658,0,0,0,.226-.281,2.1,2.1,0,0,0,.172-.308,1.682,1.682,0,0,0,.136-.344A1.542,1.542,0,0,0,3.635,81.939Z" transform="translate(-0.001 -80.135)"/>
      </g>
    </g>
    <g id="Group_26" data-name="Group 26" transform="translate(0.011 88.161)">
      <g id="Group_25" data-name="Group 25" transform="translate(0 0)">
        <path id="Path_10" data-name="Path 10" class="cls-1" d="M3.8,225.939a1.549,1.549,0,0,0,0-.353,1.467,1.467,0,0,0-.136-.335,1.812,1.812,0,0,0-.172-.317,1.3,1.3,0,0,0-.226-.272A1.812,1.812,0,0,0,.18,225.939a1.807,1.807,0,0,0,.3,1.006,1.739,1.739,0,0,0,.236.272,1.323,1.323,0,0,0,.272.226,1.47,1.47,0,0,0,.308.172,1.54,1.54,0,0,0,.344.1,1.5,1.5,0,0,0,.353.036,1.542,1.542,0,0,0,.353,0,1.47,1.47,0,0,0,.335-.1A1.513,1.513,0,0,0,3,227.479a1.323,1.323,0,0,0,.272-.226,1.322,1.322,0,0,0,.226-.272,1.457,1.457,0,0,0,.172-.308,1.533,1.533,0,0,0,.136-.381A1.5,1.5,0,0,0,3.8,225.939Z" transform="translate(-0.18 -224.135)"/>
      </g>
    </g>
    <g id="Group_28" data-name="Group 28" transform="translate(0.011 96.315)">
      <g id="Group_27" data-name="Group 27">
        <path id="Path_11" data-name="Path 11" class="cls-1" d="M3.8,369.939a1.555,1.555,0,0,0,0-.353,1.542,1.542,0,0,0-.136-.344,2.1,2.1,0,0,0-.172-.308,1.323,1.323,0,0,0-.226-.272,1.812,1.812,0,0,0-2.555,0,1.323,1.323,0,0,0-.226.272,2.1,2.1,0,0,0-.172.308,1.484,1.484,0,0,0-.1.344,1.557,1.557,0,0,0-.036.353,1.812,1.812,0,0,0,.535,1.277,1.323,1.323,0,0,0,.272.227,1.469,1.469,0,0,0,.308.172,1.54,1.54,0,0,0,.344.1,1.5,1.5,0,0,0,.353.036,1.541,1.541,0,0,0,.353,0,1.47,1.47,0,0,0,.335-.1A1.512,1.512,0,0,0,3,371.479a1.323,1.323,0,0,0,.272-.226,1.322,1.322,0,0,0,.226-.272,1.449,1.449,0,0,0,.172-.308,1.539,1.539,0,0,0,.136-.38A1.5,1.5,0,0,0,3.8,369.939Z" transform="translate(-0.178 -368.135)"/>
      </g>
    </g>
    <g id="Group_30" data-name="Group 30" transform="translate(5.447 88.153)">
      <g id="Group_29" data-name="Group 29" transform="translate(0 0)">
        <path id="Path_12" data-name="Path 12" class="cls-1" d="M117.923,224H97.992a1.812,1.812,0,1,0,0,3.624h19.931a1.812,1.812,0,1,0,0-3.624Z" transform="translate(-96.18 -224)"/>
      </g>
    </g>
    <g id="Group_32" data-name="Group 32" transform="translate(5.447 96.307)">
      <g id="Group_31" data-name="Group 31">
        <path id="Path_13" data-name="Path 13" class="cls-1" d="M109.769,368H97.992a1.812,1.812,0,0,0,0,3.624h11.777a1.812,1.812,0,0,0,0-3.624Z" transform="translate(-96.18 -368)"/>
      </g>
    </g>
  </g>
</svg>
